<svg enable-background="new 0 0 512 512" viewBox="0 0 512 512"   xmlns="http://www.w3.org/2000/svg" width="4rem" height="4rem" id="buter">
<defs>
<style>
#buter{
   animation: bugAnimation 3s infinite;
}
@keyframes bugAnimation {
  0% {
    fill:#84D948;
    transform: translateY(0);
    transform: scale(1);
  }
  25% {
    transform: translateX(25px);
    transform: scale(0.5);
  }
  50% {
    transform: translateY(15px);
  }
  75% {
    transform: translateX(15px);
  }
  100% {
    transform: translateY(0);
    transform: scale(1);
  }
}
</style>
</defs>
<path d="m361.095 163.035v78.147c0 60.267-34.409 112.496-84.651 138.117-7.519 52.182-52.41 92.282-106.675 92.282h-53.895c-59.53 0-107.789-48.258-107.789-107.789 0-36.894 18.54-69.453 46.808-88.884-2.41-10.858-3.692-22.141-3.692-33.725v-78.147c-.001-85.576 69.371-154.949 154.946-154.949 85.575 0 154.948 69.373 154.948 154.948z" fill="#dcfff9"/><path d="m361.095 163.035v46.533 31.615c0 60.267-34.409 112.496-84.651 138.117-7.519 52.182-52.41 92.282-106.675 92.282h-40.421-13.474c-5.355 0-10.617-.397-15.763-1.151l158.992-158.992c39.356-39.356 61.499-92.72 61.573-148.38 0-.016 0-.025 0-.025 0-78.724-58.711-143.73-134.734-153.636v-.001c6.614-.861 13.358-1.311 20.207-1.311 85.573.001 154.946 69.374 154.946 154.949z" fill="#c3fff9"/><path d="m404.878 288.902c14.465 19.012 13.03 46.255-4.333 63.617l-137.194 137.193c-17.362 17.362-44.605 18.798-63.617 4.333-14.465-19.012-13.03-46.256 4.333-63.617l137.193-137.193c17.363-17.363 44.606-18.799 63.618-4.333z" fill="#87ceb7"/><path d="m400.545 283.922c1.289 1.289 2.482 2.637 3.596 4.027l-205.36 205.358c-1.39-1.113-2.738-2.307-4.027-3.595-18.943-18.943-18.943-49.654 0-68.597l137.194-137.193c18.942-18.942 49.654-18.942 68.597 0z" fill="#aff2d8"/><path d="m244.296 371.573 68.597 68.597-38.109 38.109-68.597-68.597zm76.219-76.218-38.109 38.109 68.597 68.597 38.109-38.109z" fill="#6db2a5"/><path d="m428.463 29.645c0 11.906-9.651 21.558-21.558 21.558s-21.558-9.651-21.558-21.558 9.651-21.558 21.558-21.558 21.558 9.653 21.558 21.558zm53.895-21.558c-11.906 0-21.558 9.651-21.558 21.558s9.651 21.558 21.558 21.558c11.905 0 21.558-9.651 21.558-21.558s-9.652-21.558-21.558-21.558z" fill="#6db2a5"/><path d="m482.358 29.645c0 7.974-4.342 14.921-10.779 18.65-6.437-3.73-10.779-10.675-10.779-18.65s4.342-14.921 10.779-18.65c6.437 3.729 10.779 10.676 10.779 18.65zm-86.232-18.649c-6.437 3.728-10.779 10.675-10.779 18.65s4.342 14.921 10.779 18.65c6.437-3.728 10.779-10.675 10.779-18.65s-4.342-14.922-10.779-18.65z" fill="#87ceb7"/><path d="m417.684 256.003c0 23.812-19.304 43.116-43.116 43.116s-43.116-19.304-43.116-43.116 19.304-43.116 43.116-43.116 43.116 19.304 43.116 43.116z" fill="#c3fff9"/><path d="m396.126 256.003c0 20.09-13.741 36.971-32.337 41.758-18.596-4.786-32.337-21.667-32.337-41.758s13.741-36.971 32.337-41.758c18.596 4.788 32.337 21.668 32.337 41.758z" fill="#dcfff9"/><path d="m423.401 388.254c1.516 1.516 2.367 3.572 2.367 5.716v32.337c0 4.465-3.618 8.084-8.084 8.084s-8.084-3.62-8.084-8.084v-28.989l-8.412-8.411c-3.157-3.157-3.157-8.276 0-11.432 3.158-3.157 8.276-3.157 11.433 0zm-45.556 27.365c-3.156-3.157-8.275-3.157-11.432 0s-3.157 8.276.001 11.432l8.841 8.841v28.989c0 4.465 3.618 8.084 8.084 8.084s8.084-3.62 8.084-8.084v-32.337c0-2.144-.852-4.201-2.368-5.716zm-304.011-110.624c-1.942-4.019-6.773-5.704-10.797-3.762-4.019 1.942-5.703 6.777-3.761 10.796 21.83 45.175 64.074 78.318 113.005 88.658.564.119 1.126.177 1.68.177 3.739 0 7.097-2.61 7.901-6.415.923-4.369-1.869-8.658-6.238-9.581-44.069-9.313-82.122-39.173-101.79-79.873zm300.734-58.157c-4.466 0-8.084 3.62-8.084 8.084v2.156c0 4.465 3.618 8.084 8.084 8.084s8.084-3.62 8.084-8.084v-2.156c.001-4.465-3.618-8.084-8.084-8.084zm137.432-217.196c0 13.544-9.13 24.994-21.558 28.521v55.343c0 29.765-5.808 58.786-17.26 86.255-11.416 27.379-27.868 51.855-48.901 72.753-.522.518-1.098.952-1.708 1.299-1.968 5.289-4.787 10.167-8.29 14.469 13.75 22.04 10.682 51.247-8.022 69.95l-87.575 87.576c-.024.026-.05.051-.074.077-.026.025-.052.051-.077.075l-37.955 37.954c-.026.027-.052.053-.078.08s-.053.053-.08.079l-11.353 11.355c-10.69 10.686-24.901 16.572-40.016 16.572s-29.326-5.886-40.015-16.575c-4.731-4.73-8.52-10.152-11.276-16.035-2.659.181-5.332.273-7.994.273h-53.895c-63.892 0-115.873-51.98-115.873-115.874s51.981-115.874 115.874-115.874h53.895c31.643 0 61.197 12.518 83.221 35.246 3.108 3.207 3.027 8.325-.18 11.431-3.206 3.108-8.325 3.027-11.43-.18-18.952-19.557-44.383-30.329-71.611-30.329h-53.895c-54.978 0-99.705 44.727-99.705 99.705s44.727 99.705 99.705 99.705h53.895c1.084 0 2.171-.017 3.256-.053-.373-2.638-.562-5.32-.562-8.031 0-15.115 5.886-29.326 16.576-40.015l120.993-120.994c3.158-3.157 8.276-3.157 11.433 0s3.157 8.276 0 11.432l-120.994 120.996c-7.636 7.635-11.84 17.785-11.84 28.583 0 10.797 4.204 20.948 11.84 28.583 7.634 7.635 17.784 11.839 28.581 11.839s20.948-4.204 28.581-11.839l5.717-5.717-40.015-40.015c-3.157-3.157-3.157-8.276 0-11.432 3.158-3.157 8.276-3.157 11.433 0l40.014 40.015 26.677-26.677-40.015-40.015c-3.157-3.157-3.157-8.276 0-11.432 3.158-3.157 8.276-3.157 11.433 0l40.014 40.015 26.677-26.677-40.015-40.015c-3.157-3.157-3.157-8.276 0-11.432 3.159-3.158 8.277-3.157 11.433 0l40.014 40.015 26.677-26.677-40.015-40.015c-3.157-3.157-3.157-8.276 0-11.432 3.158-3.157 8.276-3.157 11.433 0l40.014 40.015 5.716-5.716c12.691-12.691 15.308-32.148 7.124-47.553-7.922 5.035-17.316 7.953-27.382 7.953-28.231 0-51.2-22.969-51.2-51.2 0-20.535 12.152-38.285 29.642-46.438v-46.531c0-80.98-65.882-146.863-146.863-146.863s-146.862 65.881-146.862 146.862v78.147c0 4.465-3.618 8.084-8.084 8.084s-8.084-3.62-8.084-8.084v-78.147c0-89.896 73.136-163.032 163.031-163.032s163.032 73.136 163.032 163.032v42.05c1.772-.186 3.57-.281 5.389-.281 6.813 0 13.322 1.339 19.274 3.765 3.306-12.659 4.979-25.671 4.979-38.797v-111.606c-12.428-3.527-21.558-14.978-21.558-28.521 0-16.345 13.298-29.642 29.642-29.642s29.642 13.297 29.642 29.642c0 13.544-9.13 24.994-21.558 28.521v111.605c0 16.154-2.292 32.155-6.818 47.631 8.814 7.683 14.983 18.334 16.937 30.375 31.427-37.294 49.165-85.294 49.165-134.267v-55.344c-12.428-3.527-21.558-14.978-21.558-28.521.001-16.345 13.299-29.642 29.643-29.642s29.642 13.297 29.642 29.642zm-105.095 13.474c7.43 0 13.474-6.044 13.474-13.474s-6.044-13.474-13.474-13.474-13.474 6.044-13.474 13.474 6.044 13.474 13.474 13.474zm2.695 212.884c0-19.316-15.715-35.032-35.032-35.032s-35.032 15.716-35.032 35.032 15.715 35.032 35.032 35.032 35.032-15.716 35.032-35.032zm86.232-226.358c0-7.43-6.044-13.474-13.474-13.474s-13.474 6.044-13.474 13.474 6.044 13.474 13.474 13.474 13.474-6.044 13.474-13.474z"/></svg>


